/* XPM */
static char *camera__[] = {
/* columns rows colors chars-per-pixel */
"16 16 116 2",
"   c black",
".  c #040404",
"X  c gray2",
"o  c #060606",
"O  c gray3",
"+  c #090909",
"@  c gray4",
"#  c #0C0C0C",
"$  c gray6",
"%  c #0F100F",
"&  c #101010",
"*  c gray7",
"=  c #131313",
"-  c gray8",
";  c #151515",
":  c #161616",
">  c gray9",
",  c #181818",
"<  c #19191A",
"1  c #1B1B1A",
"2  c gray11",
"3  c #1D1D1D",
"4  c #1F1E1E",
"5  c #202020",
"6  c gray13",
"7  c #222222",
"8  c #232323",
"9  c #252425",
"0  c #252525",
"q  c gray15",
"w  c #272727",
"e  c #292829",
"r  c gray16",
"t  c #2A2A2A",
"y  c gray17",
"u  c #2C2C2B",
"i  c #2C2C2C",
"p  c #2F2F2F",
"a  c #313131",
"s  c #323232",
"d  c gray20",
"f  c #333334",
"g  c #343434",
"h  c #353535",
"j  c #363535",
"k  c gray21",
"l  c #373737",
"z  c gray22",
"x  c #393939",
"c  c #393A39",
"v  c #3B3B3A",
"b  c #3A3B3B",
"n  c gray24",
"m  c #3F3F3F",
"M  c gray25",
"N  c gray26",
"B  c #434444",
"V  c #444444",
"C  c gray27",
"Z  c #464545",
"A  c #464646",
"S  c #474646",
"D  c #484848",
"F  c #494949",
"G  c #49494A",
"H  c #4B4B4B",
"J  c gray30",
"K  c #4E4E4E",
"L  c gray31",
"P  c #534848",
"I  c #505050",
"U  c gray32",
"Y  c gray33",
"T  c gray34",
"R  c gray36",
"E  c gray37",
"W  c #5F5F5F",
"Q  c #7A4848",
"!  c gray38",
"~  c #626262",
"^  c gray39",
"/  c #656565",
"(  c gray40",
")  c #676767",
"_  c #686868",
"`  c #6A6B6A",
"'  c gray42",
"]  c #6D6D6D",
"[  c gray43",
"{  c #727272",
"}  c #777777",
"|  c #7F7474",
" . c gray48",
".. c #7B7B7B",
"X. c #903F3F",
"o. c #A43A3A",
"O. c #964545",
"+. c #B34949",
"@. c #C14141",
"#. c #C74848",
"$. c #C34D4D",
"%. c #CC5656",
"&. c #DB5E5E",
"*. c #DB5F5F",
"=. c #D96363",
"-. c #808080",
";. c #828181",
":. c #848485",
">. c #898989",
",. c #8E8E8E",
"<. c #958282",
"1. c #909090",
"2. c #A08D8D",
"3. c gray65",
"4. c #CD8C8C",
"5. c None",
/* pixels */
"5.5.5.5.5.5.5.5.5.5.5.5.5.5.5.5.",
"5.5.5.5.5.5.5.5.5.5.5.5.5.5.5.5.",
"5.5.O . > O O O O O O O # . 5.5.",
"5.5.5 k k v z z z k k a a p O 5.",
"5.. z k a p p r w 0 5 5 4 1 # 5.",
"5.  ,./ ! >.-. .{ ' / E Y J 1 5.",
"5.  _ ] n :.| #.=.*.Q Y L D > 5.",
"5.  / 3.A -.+.2.a A &.U H N > 5.",
"5.  ! _ A  .%.H N 0 =.J A m - 5.",
"5.  W / ! { O.4.H <.@.H N z * 5.",
"5.  E 1.! { ' O.$.o.P A n k * 5.",
"5.  _ r 0 ] / E Y J H m z a # 5.",
"5.  y r 0 0 5 4 1 1 > > > % . 5.",
"5.5.5.5.5.5.5.5.5.5.5.5.5.5.5.5.",
"5.5.5.5.5.5.5.5.5.5.5.5.5.5.5.5.",
"5.5.5.5.5.5.5.5.5.5.5.5.5.5.5.5."
};
